<svg id="Capa_1" enable-background="new 0 0 512 512" height="36" fill="#FFFFFF" viewBox="0 0 512 512" width="36" xmlns="http://www.w3.org/2000/svg"><g><path d="m227.499 265.813h-.748v-27.678c0-6.948-5.641-12.602-12.574-12.602h-10.3v-145.594c0-.029-.004-.057-.004-.086.116-4.635-.558-9.654-2.068-14.962-3.754-13.201-12.305-26.954-24.076-38.726-16.386-16.386-36.051-26.165-52.614-26.165-.008 0-.017 0-.023 0-8.729.005-16.138 2.807-21.429 8.103-5.31 5.299-8.118 12.723-8.12 21.47 0 .417.01.838.023 1.26l.109 194.702h-10.41c-6.933 0-12.573 5.653-12.573 12.602v27.678h-.777c-15.232 0-27.625 12.405-27.625 27.653 0 12.633 8.527 23.304 20.125 26.582v179.037c0 7.121 5.246 12.914 11.695 12.914h147.224c6.433 0 11.666-5.793 11.666-12.914v-179.036c11.614-3.275 20.153-13.948 20.153-26.584-.001-15.248-12.406-27.654-27.654-27.654zm-113.24-247.091c.004-.005.008-.009.012-.013 2.453-2.458 6.097-3.706 10.829-3.709h.015c12.294 0 28.78 8.545 42.007 21.772 20.896 20.896 26.287 44.628 18.056 52.858-4.003 4.006-11.529 4.814-20.645 2.221-10.774-3.064-22.213-10.265-32.216-20.28-13.229-13.214-21.776-29.698-21.773-41.996 0-4.743 1.25-8.395 3.715-10.853zm74.618 86.478v120.334h-78.202l-.087-156.319c3.251 4.463 6.974 8.819 11.123 12.962 11.773 11.789 25.523 20.348 38.718 24.102 4.917 1.399 9.591 2.091 13.939 2.091 5.395 0 10.286-1.067 14.509-3.17zm-101.186 135.334h15.487.004 108.568v25.279h-124.059zm-8.277 256.466v-41.465h140.585v41.465zm148.085-190.908h-63.917c-4.143 0-7.5 3.357-7.5 7.5s3.357 7.5 7.5 7.5h56.417v119.443h-140.585v-119.443h53.441c4.143 0 7.5-3.357 7.5-7.5s-3.357-7.5-7.5-7.5h-60.941c-6.962 0-12.625-5.663-12.625-12.625 0-6.978 5.663-12.653 12.625-12.653h8.277 139.06 8.248c6.977 0 12.653 5.676 12.653 12.653 0 6.962-5.676 12.625-12.653 12.625z"/><path d="m416.105 190.896h-67.347c-28.471 0-51.633 23.15-51.633 51.605v51.505 44.7 160.776c0 6.902 5.615 12.518 12.517 12.518h145.579c6.887 0 12.489-5.615 12.489-12.518v-69.163c0-4.143-3.357-7.5-7.5-7.5s-7.5 3.357-7.5 7.5v66.681h-140.584v-150.794h140.585v49.475c0 4.143 3.357 7.5 7.5 7.5s7.5-3.357 7.5-7.5v-56.975-44.7-51.505c0-28.455-23.15-51.605-51.606-51.605zm-67.346 15h67.347c20.185 0 36.605 16.421 36.605 36.605v44.005h-140.585v-44.005c0-20.185 16.434-36.605 36.633-36.605zm-36.633 125.31v-29.7h140.585v29.7z"/></g></svg>