<svg id="Capa_1" enable-background="new 0 0 512 512" fill="#FFFFFF" height="36" viewBox="0 0 512 512" width="36" xmlns="http://www.w3.org/2000/svg"><g><path d="m474.534 58.679 33.073-33.072c5.858-5.858 5.858-15.355 0-21.213-5.857-5.858-15.355-5.858-21.213 0l-33.073 33.072-33.072-33.072c-5.857-5.858-15.355-5.858-21.213 0l-41.613 41.613-19.108-19.108c-11.696-11.697-30.73-11.698-42.426 0l-34.787 34.787c-11.697 11.697-11.697 30.729 0 42.426l62.787 62.787-156.99 156.99-62.787-62.787c-11.696-11.697-30.73-11.696-42.426 0l-34.787 34.787c-11.697 11.697-11.697 30.729 0 42.426l19.108 19.108-41.613 41.613c-5.858 5.858-5.858 15.355 0 21.213l33.073 33.073-33.073 33.072c-5.858 5.858-5.858 15.355 0 21.213 2.928 2.929 6.767 4.393 10.606 4.393s7.678-1.464 10.606-4.394l33.073-33.072 33.073 33.072c2.929 2.929 6.768 4.394 10.606 4.394s7.678-1.464 10.606-4.394l41.613-41.613 19.108 19.108c5.848 5.849 13.531 8.773 21.213 8.773s15.365-2.924 21.213-8.773l34.787-34.787c11.697-11.697 11.697-30.729 0-42.426l-62.787-62.787 156.99-156.99 62.787 62.787c5.848 5.849 13.531 8.773 21.213 8.773 7.683 0 15.365-2.924 21.213-8.773l34.787-34.787c11.697-11.697 11.697-30.729 0-42.426l-19.108-19.108 41.613-41.613c5.858-5.858 5.858-15.355 0-21.213zm-372.176 417.108-66.145-66.145 31.006-31.006 66.145 66.145zm92.541-11.899-146.787-146.787 34.787-34.787 146.787 146.787zm268.989-268.989-34.787 34.787-146.786-146.787 34.787-34.787 146.799 146.773s-.004.005-.013.014zm-19.108-61.534-66.144-66.145 31.006-31.006 66.145 66.145z"/></g></svg>