<?xml version="1.0" encoding="utf-8"?>
<!-- Generator: Adobe Illustrator 16.0.0, SVG Export Plug-In . SVG Version: 6.00 Build 0)  -->
<!DOCTYPE svg PUBLIC "-//W3C//DTD SVG 1.1//EN" "http://www.w3.org/Graphics/SVG/1.1/DTD/svg11.dtd">
<svg version="1.1" id="Capa_1" xmlns="http://www.w3.org/2000/svg" xmlns:xlink="http://www.w3.org/1999/xlink" x="0px" y="0px"
	 width="35" height="35" viewBox="0.063 -0.5 108.667 101.5" enable-background="new 0.063 -0.5 108.667 101.5"
	 xml:space="preserve">
<path   stroke-width="8" stroke-miterlimit="10" d="M96.22,12.524
	C91.047,6.964,83.799,3.801,76.205,3.79c-7.601,0.009-14.854,3.17-20.035,8.731l-1.767,1.866l-1.767-1.866
	c-5.387-5.799-12.703-8.733-20.038-8.733c-6.662,0-13.34,2.42-18.606,7.313c-0.49,0.456-0.964,0.929-1.419,1.419
	c-10.904,11.762-10.904,29.938,0,41.701l39.234,41.375c0.703,0.742,1.648,1.115,2.596,1.115c0.882,0,1.766-0.324,2.457-0.979
	c0.048-0.043,0.094-0.09,0.138-0.137L96.22,54.222C107.123,42.46,107.123,24.284,96.22,12.524z"/>
</svg>
