<svg id="Layer_1" height="512" viewBox="0 0 512 512" width="512" xmlns="http://www.w3.org/2000/svg" data-name="Layer 1"><path d="m463.353 293.276a41.557 41.557 0 0 0 -18.172 3.284v-36.491a19.812 19.812 0 0 0 -19.737-19.84h-181.577a19.811 19.811 0 0 0 -19.736 19.84v36.489a41.544 41.544 0 0 0 -18.173-3.282c-20.695.958-37.651 17.7-38.6 38.109-.928 19.893 13.28 37.45 32.791 41.186v110.257a12.737 12.737 0 0 0 12.722 12.723h23.063a12.74 12.74 0 0 0 12.722-12.714l.016-23.7h171.97l.015 23.7a12.74 12.74 0 0 0 12.724 12.713h23.062a12.737 12.737 0 0 0 12.723-12.723v-110.256c19.51-3.736 33.718-21.293 32.79-41.185-.956-20.412-17.909-37.152-38.603-38.11zm-227.222-33.207a7.8 7.8 0 0 1 7.736-7.84h181.577a7.8 7.8 0 0 1 7.737 7.84v44.292c-.1.092-.2.178-.3.271a39.261 39.261 0 0 0 -12.352 28.607l-.007.721c-.009.761-.02 1.612.037 2.479l.02 31.073a326.725 326.725 0 0 0 -52.234-9.73l11.061-30.457a6 6 0 0 0 -11.279-4.1l-12.173 33.516a325.973 325.973 0 0 0 -39.575-.157l-15.4-33.079a6 6 0 0 0 -10.878 5.064l13.5 29a329.348 329.348 0 0 0 -54.873 10.05l.022-31.183c.057-.867.046-1.716.035-2.474l-.007-.727a39.261 39.261 0 0 0 -12.351-28.607c-.1-.093-.2-.178-.3-.27zm12.592 120.008a317.164 317.164 0 0 1 63.661-11.207c.1.006.21.023.316.023a5.977 5.977 0 0 0 1.141-.116 314.266 314.266 0 0 1 106.748 11.187l.029 44.555h-171.926zm-12.792 103.475h-23.063a.723.723 0 0 1 -.722-.723v-113.029a8.766 8.766 0 0 0 -7.724-8.7 28.326 28.326 0 0 1 -25.08-29.155c.666-14.287 12.6-26.006 27.171-26.681q.677-.031 1.351-.032a29.548 29.548 0 0 1 17.528 5.777 6.02 6.02 0 0 0 2.1 1.71c.219.2.44.389.653.593a27.367 27.367 0 0 1 8.638 19.928c0 .285 0 .584.008.889.008.566.017 1.209-.016 1.592-.013.164-.02.329-.02.494l-.064 94.3-.015 22.611v.017l-.02 29.682a.723.723 0 0 1 -.725.727zm12.747-36.413.007-10.62h171.941l.008 10.62zm216.212-86.039a8.765 8.765 0 0 0 -7.724 8.7v113.028a.723.723 0 0 1 -.723.723h-23.062a.724.724 0 0 1 -.724-.722l-.071-107.419v-.056l-.026-39.141c0-.165-.007-.33-.021-.494-.032-.387-.023-1.032-.017-1.6 0-.3.008-.6.008-.879a27.368 27.368 0 0 1 8.639-19.927c.213-.2.435-.4.653-.594a6.015 6.015 0 0 0 2.1-1.711 29.545 29.545 0 0 1 17.526-5.776q.675 0 1.352.032c14.569.675 26.5 12.394 27.172 26.681a28.328 28.328 0 0 1 -25.082 29.155z"/><path d="m196.357 178.179c2.656 9.682 11.294 16.831 21.412 16.831s18.754-7.149 21.412-16.831h7.68v6.521a6 6 0 0 0 6 6h169.946a6 6 0 0 0 6-6v-132.8a6 6 0 0 0 -6-6h-169.946a6 6 0 0 0 -6 6v66.788a52.544 52.544 0 0 0 -24.347-8.947c-2.755-51.928-43.947-93.289-94.19-93.289-51.847 0-94.054 44.045-94.333 98.294-.01.139-.021.278-.021.419v368.387h-17.97a6 6 0 0 0 0 12h54.2a6 6 0 0 0 0-12h-24.23v-367.981c.005-.1.014-.192.014-.29 0-47.88 36.938-86.833 82.34-86.833 43.651 0 79.469 36.005 82.171 81.33a52.945 52.945 0 0 0 -47.1 52.553v9.848a6 6 0 0 0 6 6zm21.412 4.831a10.09 10.09 0 0 1 -8.448-4.831h16.9a10.092 10.092 0 0 1 -8.452 4.831zm41.092-4.831h5.073a6 6 0 0 0 6-6v-2.488l30.08-29.745 36.417 38.754h-77.57zm94.036.519-.917-.976 28.328-23.866 26.526 24.844zm63.91-120.8v113.702l-32.187-30.146a6 6 0 0 0 -7.968-.21l-32.9 27.72-39.207-41.721a5.994 5.994 0 0 0 -4.262-1.889 5.868 5.868 0 0 0 -4.329 1.732l-26.764 26.463a52.623 52.623 0 0 0 -10.329-23.539v-72.11zm-241.407 104.433a40.921 40.921 0 0 1 40.875-40.875h.788a40.922 40.922 0 0 1 40.875 40.875v2.988a5.757 5.757 0 0 0 -.272.86h-82.266z"/><path d="m208.343 134.757a6 6 0 0 0 -8.365-1.424 53.3 53.3 0 0 0 -13.867 14.412 6 6 0 1 0 10.051 6.557 41.336 41.336 0 0 1 10.757-11.18 6 6 0 0 0 1.424-8.365z"/><path d="m340.646 131.679a21.126 21.126 0 1 0 -21.126-21.126 21.15 21.15 0 0 0 21.126 21.126zm0-30.252a9.126 9.126 0 1 1 -9.126 9.126 9.136 9.136 0 0 1 9.126-9.126z"/></svg>