<?xml version="1.0" encoding="iso-8859-1"?>
<!-- Generator: Adobe Illustrator 19.0.0, SVG Export Plug-In . SVG Version: 6.00 Build 0)  -->
<svg version="1.1" id="Capa_1" xmlns="http://www.w3.org/2000/svg" xmlns:xlink="http://www.w3.org/1999/xlink" x="0px" y="0px"
	 viewBox="0 0 512 512" style="enable-background:new 0 0 512 512;" fill="#FFFFFF" height="36" width="36" xml:space="preserve">
<g>
	<g>
		<path d="M327.761,274.047c-30.666-25.257-16.459-57.414,5.3-96.83c1.596-2.891,3.148-5.703,4.612-8.425
			c10.612-19.733,17.702-34.771,12.25-48.616c-4.292-10.9-15.85-19.033-37.476-26.37c-31.714-10.758-35.232-34.176-35.471-42.245
			c5.588-5.463,9.065-13.079,9.065-21.496C286.04,13.487,272.565,0,256.001,0c-16.564,0-30.039,13.487-30.039,30.065
			c0,8.417,3.478,16.032,9.065,21.495c-0.241,8.073-3.763,31.488-35.483,42.245c-21.624,7.339-33.181,15.473-37.472,26.374
			c-5.452,13.849,1.642,28.885,12.291,48.677c0.386,0.701,0.771,1.412,1.161,2.13l0.447,0.824c1.359,2.501,3.936,3.919,6.596,3.919
			c1.209,0,2.437-0.293,3.575-0.911c3.639-1.979,4.986-6.532,3.008-10.172l-0.441-0.813c-0.404-0.745-0.805-1.482-1.171-2.147
			c-8.404-15.62-14.588-28.189-11.509-36.013c2.46-6.251,11.729-12.028,28.333-17.663c33.384-11.322,42.501-34.46,44.869-48.658
			c2.177,0.504,4.441,0.779,6.77,0.779c2.326,0,4.588-0.275,6.764-0.778c2.36,14.198,11.47,37.329,44.864,48.657
			c16.607,5.635,25.877,11.411,28.338,17.661c3.08,7.82-3.102,20.393-11.503,36.015c-1.439,2.674-2.966,5.439-4.534,8.281
			c-9.341,16.921-19.929,36.1-23.517,55.9c-4.372,24.13,2.967,44.234,21.815,59.758c29.987,24.687,20.169,58.532,15.54,70.148
			H319.21c-4.143,0-7.5,3.357-7.5,7.5s3.357,7.5,7.5,7.5h19.423c2.802,0,5.37-1.562,6.659-4.049
			c0.29-0.561,7.128-13.934,8.477-31.867C355.594,310.583,346.6,289.555,327.761,274.047z M256,45.131
			c-8.292,0.001-15.039-6.758-15.039-15.066C240.961,21.758,247.708,15,256,15c8.293,0,15.04,6.759,15.04,15.065
			C271.04,38.373,264.293,45.131,256,45.131z"/>
	</g>
</g>
<g>
	<g>
		<path d="M287.628,471.02H263.5v-24.311c0-4.143-3.357-7.5-7.5-7.5c-4.142,0-7.5,3.357-7.5,7.5v24.311h-24.128
			c-11.472,0-20.805,9.333-20.805,20.805V504.5c0,4.143,3.358,7.5,7.5,7.5h89.865c4.143,0,7.5-3.357,7.5-7.5v-12.676
			C308.433,480.353,299.1,471.02,287.628,471.02z M293.433,497h-74.865v-5.176c0-3.201,2.604-5.805,5.805-5.805h63.255
			c3.201,0,5.805,2.604,5.805,5.805V497z"/>
	</g>
</g>
<g>
	<g>
		<path d="M281.619,355.774H178.231c-4.633-11.636-14.433-45.47,15.54-70.149c34.57-28.472,23.192-65.035,11.626-90.061
			c-1.737-3.759-6.193-5.402-9.955-3.661c-3.76,1.737-5.399,6.194-3.662,9.954c15.48,33.494,13.223,55.084-7.545,72.188
			c-18.836,15.509-27.828,36.537-26.005,60.812c1.347,17.935,8.182,31.306,8.472,31.866c1.289,2.488,3.857,4.051,6.66,4.051H248.5
			v38.628h0.001c0,4.143,3.358,7.5,7.5,7.5c4.143,0,7.5-3.357,7.5-7.5v-38.628h18.118c4.143,0,7.5-3.357,7.5-7.5
			S285.762,355.774,281.619,355.774z"/>
	</g>
</g>
<g>
</g>
<g>
</g>
<g>
</g>
<g>
</g>
<g>
</g>
<g>
</g>
<g>
</g>
<g>
</g>
<g>
</g>
<g>
</g>
<g>
</g>
<g>
</g>
<g>
</g>
<g>
</g>
<g>
</g>
</svg>
