<svg id="Capa_1" enable-background="new 0 0 512 512" height="512" viewBox="0 0 512 512" width="512" xmlns="http://www.w3.org/2000/svg"><g><path d="m372 191c-51.3 0-96.236 27.741-120.617 69.004l-122.378-52.75c.641-3.658.995-7.415.995-11.254s-.354-7.596-.995-11.254l125.368-54.039c10.093 12.374 25.451 20.293 42.627 20.293 30.327 0 55-24.673 55-55s-24.673-55-55-55-55 24.673-55 55c0 2.43.175 4.818.482 7.166l-125.364 54.037c-11.861-15.893-30.807-26.203-52.118-26.203-35.841 0-65 29.159-65 65s29.159 65 65 65c21.311 0 40.257-10.31 52.118-26.202l121.866 52.529c-4.526 13.749-6.984 28.428-6.984 43.673 0 77.196 62.804 140 140 140s140-62.804 140-140-62.804-140-140-140zm-75-120c13.785 0 25 11.215 25 25s-11.215 25-25 25-25-11.215-25-25 11.215-25 25-25zm-232 160c-19.299 0-35-15.701-35-35s15.701-35 35-35 35 15.701 35 35-15.701 35-35 35zm252 195.234v-.234c0-30.327 24.673-55 55-55s55 24.673 55 55v.234c-16.19 9.386-34.978 14.766-55 14.766s-38.81-5.38-55-14.766zm30-110.234c0-13.785 11.215-25 25-25s25 11.215 25 25-11.215 25-25 25-25-11.215-25-25zm107.124 88.096c-5.963-22.337-20.817-41.069-40.524-52.179 8.338-9.644 13.4-22.197 13.4-35.917 0-30.327-24.673-55-55-55s-55 24.673-55 55c0 13.72 5.062 26.273 13.4 35.917-19.707 11.11-34.561 29.842-40.524 52.179-17.328-19.447-27.876-45.061-27.876-73.096 0-60.654 49.346-110 110-110s110 49.346 110 110c0 28.035-10.548 53.649-27.876 73.096z"/></g></svg>