<svg id="Capa_1" enable-background="new 0 0 512 512" height="36" fill="#FFFFFF" viewBox="0 0 512 512" width="36" xmlns="http://www.w3.org/2000/svg"><g><path d="m353.631 371.03-26.275-81.777c8.104-3.406 13.811-11.425 13.811-20.753 0-12.406-10.094-22.5-22.5-22.5h-55.167v-18.691c7.714 3.559 16.162 5.458 24.717 5.458 13.78 0 27.179-4.824 37.727-13.585.002-.002.004-.003.006-.005 3.052-2.535 5.867-5.402 8.37-8.523l17.653-22.017c2.591-3.231 2.072-7.951-1.159-10.542-5.335-4.278-11.292-7.567-17.705-9.776-3.922-1.347-8.186.733-9.534 4.649-1.349 3.917.733 8.185 4.649 9.533 2.41.83 4.734 1.866 6.958 3.099l-12.564 15.67c-1.873 2.335-3.978 4.479-6.255 6.371-.001 0-.002.001-.003.002-7.86 6.528-17.855 10.124-28.143 10.124-7.567 0-14.805-1.878-21.282-5.483l12.57-15.676c5.081-6.337 11.78-11.134 19.373-13.873 3.896-1.405 5.916-5.703 4.51-9.6-1.404-3.896-5.702-5.919-9.6-4.51-10.19 3.676-19.177 10.106-25.986 18.599l-4.302 5.365v-44.068c5.776 5.596 13.566 8.97 22.091 8.97 6.469 0 12.85-1.974 18.251-5.756 7.54-5.28 12.422-13.559 13.393-22.712 1.094-10.315-3.022-20.429-10.569-27.154 10.107-.296 19.769-5.405 25.563-14.012 5.141-7.636 6.722-17.115 4.34-26.006-2.382-8.893-8.491-16.311-16.762-20.354-11.792-5.767-26.153-3.609-35.734 5.365l-.054.051.047-.087c6.188-11.577 4.555-26.006-4.067-35.904v-.001c-6.048-6.941-14.795-10.922-24-10.921-9.205 0-17.951 3.981-23.997 10.923-8.622 9.899-10.256 24.328-4.066 35.904l.048.089-.056-.053c-9.58-8.975-23.939-11.13-35.734-5.365-8.269 4.044-14.378 11.462-16.761 20.354-2.383 8.891-.801 18.37 4.339 26.006 5.794 8.61 15.455 13.718 25.564 14.013-7.547 6.724-11.664 16.839-10.569 27.154.971 9.154 5.852 17.432 13.393 22.712 5.401 3.782 11.781 5.756 18.25 5.756 8.002 0 15.94-3.012 22.091-8.971v44.069l-4.303-5.366c-20.369-25.403-57.606-29.497-83.011-9.13-1.552 1.244-2.546 3.055-2.763 5.031-.217 1.978.359 3.96 1.604 5.512l17.654 22.017c11.649 14.528 28.813 22.087 46.128 22.087 8.401 0 16.833-1.792 24.691-5.419v18.677h-55.167c-12.407 0-22.5 10.094-22.5 22.5 0 9.328 5.706 17.347 13.811 20.753l-10.994 34.219c-1.267 3.943.903 8.167 4.847 9.435 3.939 1.266 8.167-.903 9.435-4.847l11.905-37.06h112.324l27.188 84.618c5.191 16.162 6.479 33.275 3.441 50.442h-173.582c-3.034-17.148-1.755-34.267 3.442-50.442l4.574-14.236c1.267-3.943-.903-8.167-4.846-9.435-3.945-1.268-8.168.903-9.435 4.847l-4.574 14.236c-8.201 25.527-7.685 52.803 1.581 78.13 3.356 9.18 8.247 18.922 14.464 27.956 9.534 13.854 22.647 25.598 37.923 33.962 1.104.604 2.343.922 3.602.922h80.121c1.259 0 2.498-.317 3.603-.922 15.274-8.364 28.389-20.108 37.924-33.963 5.929-8.615 10.76-17.969 14.292-27.504.054-.146.112-.292.166-.438 9.252-25.283 9.802-52.564 1.585-78.143zm-164.247-169.759-12.563-15.667c18.408-10.185 42.077-5.952 55.674 11.003l12.563 15.667c-18.408 10.186-42.077 5.953-55.674-11.003zm104.944-143.46c5.063-4.746 12.657-5.887 18.891-2.836 4.371 2.137 7.602 6.059 8.86 10.76 1.26 4.7.424 9.711-2.294 13.748-3.874 5.757-11.016 8.566-17.777 6.989l-19.833-4.627c-.097-1.61-.385-3.464-.833-5.15-.024-.09-.052-.18-.077-.27-.438-1.576-1.036-3.157-1.802-4.688zm-19.298 43.647 18.163 9.203c6.19 3.137 9.858 9.88 9.126 16.781-.514 4.839-3.094 9.216-7.08 12.007-3.987 2.79-8.985 3.72-13.703 2.546-6.735-1.672-11.818-7.425-12.648-14.314l-2.434-20.206c1.418-.615 2.96-1.462 4.315-2.389 1.561-1.067 3.09-2.391 4.261-3.628zm-31.716-80.685c3.196-3.669 7.82-5.773 12.686-5.773s9.491 2.104 12.687 5.774c4.558 5.232 5.421 12.86 2.149 18.98l-9.612 17.977c-1.689-.343-3.436-.524-5.224-.524s-3.536.181-5.224.524l-9.612-17.977c-3.272-6.119-2.408-13.747 2.15-18.981zm-51.099 58.709c-2.717-4.037-3.553-9.049-2.293-13.749 1.259-4.7 4.489-8.622 8.861-10.759 6.223-3.045 13.82-1.914 18.891 2.836l14.864 13.926c-.691 1.375-1.329 2.994-1.795 4.667-.028.099-.058.197-.084.296-.416 1.565-.727 3.409-.832 5.145l-19.833 4.627c-6.76 1.575-13.904-1.232-17.779-6.989zm50.899 48.198c-.83 6.891-5.913 12.644-12.648 14.315-4.723 1.176-9.716.245-13.703-2.546-3.986-2.791-6.567-7.168-7.08-12.007-.732-6.901 2.936-13.645 9.126-16.781l18.163-9.202c.893.944 2.078 2.015 3.253 2.902.086.065.172.128.259.191 1.598 1.175 3.339 2.172 5.065 2.923zm1.664-44.249c0-6.646 5.834-11.931 12.552-11.136.045.005.089.014.133.02 5.581.728 9.76 5.534 9.76 11.116 0 5.562-4.273 11.076-11.223 11.076-6.613 0-11.222-5.198-11.222-11.076zm73.889 192.569c-6.224 0-119.03 0-125.333 0-4.135 0-7.5-3.364-7.5-7.5s3.365-7.5 7.5-7.5h125.333c4.136 0 7.5 3.364 7.5 7.5s-3.364 7.5-7.5 7.5zm-24.562 221h-76.208c-10.152-5.813-19.129-13.345-26.355-22.08h128.92c-7.229 8.735-16.206 16.266-26.357 22.08zm36.521-37.08h-149.251c-3.317-5.906-6.077-12.007-8.36-18.859h165.97c-2.21 6.633-4.943 12.779-8.359 18.859z"/></g></svg>